<?xml version="1.0" encoding="UTF-8" standalone="no"?>
<svg
   height="480"
   viewBox="0 -960 9600 9600"
   width="480"
   fill="#ffffff"
   version="1.1"
   id="svg1"
   sodipodi:docname="icon-email.svg"
   inkscape:version="1.4.2 (ebf0e940d0, 2025-05-08)"
   xmlns:inkscape="http://www.inkscape.org/namespaces/inkscape"
   xmlns:sodipodi="http://sodipodi.sourceforge.net/DTD/sodipodi-0.dtd"
   xmlns="http://www.w3.org/2000/svg"
   xmlns:svg="http://www.w3.org/2000/svg">
  <defs
     id="defs1" />
  <sodipodi:namedview
     id="namedview1"
     pagecolor="#ffffff"
     bordercolor="#666666"
     borderopacity="1.0"
     inkscape:showpageshadow="2"
     inkscape:pageopacity="0.0"
     inkscape:pagecheckerboard="0"
     inkscape:deskcolor="#d1d1d1"
     inkscape:zoom="0.99091847"
     inkscape:cx="263.392"
     inkscape:cy="177.613"
     inkscape:window-width="1884"
     inkscape:window-height="1052"
     inkscape:window-x="36"
     inkscape:window-y="0"
     inkscape:window-maximized="1"
     inkscape:current-layer="svg1" />
  <rect
     style="fill:#8c8c8c;fill-opacity:1;stroke:none;stroke-width:680.523;stroke-dasharray:none;paint-order:markers fill stroke"
     id="rect1"
     width="9951.9541"
     height="9767.4756"
     x="-71.697792"
     y="-1012.83"
     ry="0.43547946" />
  <path
     d="m 2948.0033,5553.6941 q -130.7292,0 -228.7761,-96.3953 -98.0468,-96.3953 -98.0468,-224.9223 V 2447.6234 q 0,-128.527 98.0468,-224.9223 98.0469,-96.3953 228.7761,-96.3953 h 3703.9934 q 130.7292,0 228.776,96.3953 98.0469,96.3953 98.0469,224.9223 v 2784.7531 q 0,128.527 -98.0469,224.9223 -98.0468,96.3953 -228.776,96.3953 z M 4800,3936.3952 2948.0033,2742.1646 V 5232.3765 H 6651.9967 V 2742.1646 Z m 0,-321.3176 1830.2085,-1167.4541 h -3654.97 z m -1851.9967,-872.913 v -294.5412 2784.7531 z"
     id="path1"
     style="stroke-width:5.40098" />
</svg>
